<?xml version="1.0" encoding="utf-8"?>
<!-- Generator: Adobe Illustrator 25.0.1, SVG Export Plug-In . SVG Version: 6.00 Build 0)  -->
<svg version="1.1" id="Layer_1" xmlns="http://www.w3.org/2000/svg" xmlns:xlink="http://www.w3.org/1999/xlink" x="0px" y="0px"
	 viewBox="0 0 201.25 102.08" style="enable-background:new 0 0 201.25 102.08;" xml:space="preserve">
<style type="text/css">
	.st0{fill:#010101;}
	.st1{fill:#030303;}
	.st2{fill:none;stroke:#030303;stroke-width:2;stroke-miterlimit:10;stroke-dasharray:8;}
</style>
<g>
	<g id="H55KLx.tif">
		<g>
			<path class="st0" d="M4.47,11.23c0-2.4,0-4.8,0-7.21c0-0.22,0.03-0.43,0.1-0.63c0.19-0.57,0.36-1.14,0.56-1.7
				c0.16-0.47,0.53-0.7,0.92-0.89c0.79-0.39,1.64-0.55,2.49-0.65c1.6-0.19,3.2-0.19,4.8,0c0.85,0.1,1.7,0.27,2.49,0.65
				c0.31,0.15,0.6,0.35,0.81,0.67c0.05,0.07,0.08,0.15,0.11,0.23c0.19,0.6,0.38,1.19,0.58,1.79c0.05,0.15,0.07,0.3,0.07,0.46
				c0,4.72,0,9.44,0,14.15c0,0.38-0.03,0.75-0.13,1.13c-0.18,0.65-0.32,1.32-0.48,1.98c-0.09,0.38-0.31,0.64-0.6,0.85
				c-0.64,0.44-1.36,0.61-2.09,0.75c-1.52,0.28-3.06,0.33-4.6,0.22c-1.04-0.07-2.08-0.2-3.07-0.57c-0.48-0.18-0.94-0.4-1.23-0.89
				c-0.09-0.15-0.13-0.33-0.17-0.5c-0.18-0.74-0.36-1.47-0.53-2.21c-0.03-0.13-0.03-0.26-0.03-0.39
				C4.47,16.05,4.47,13.64,4.47,11.23z M5.63,5.38c0,0.04,0,0.12,0,0.2c0,4.16,0.01,8.31-0.01,12.47c0,0.47,0.16,0.69,0.51,0.83
				c0.03,0.01,0.06,0.02,0.09,0.04c1.14,0.49,2.34,0.64,3.54,0.72c1.19,0.08,2.39,0.04,3.58-0.12c0.8-0.11,1.59-0.28,2.34-0.61
				c0.5-0.22,0.55-0.3,0.55-0.88c0-0.04,0-0.09,0-0.13c0-4.11,0-8.23,0-12.34c0-0.07,0-0.15,0-0.18C12.69,6.48,9.17,6.48,5.63,5.38z
				 M5.88,3.22c-0.06,0.17-0.11,0.33-0.17,0.5C5.67,3.82,5.69,3.88,5.77,3.94c0.17,0.14,0.35,0.22,0.55,0.29
				c0.79,0.31,1.62,0.47,2.45,0.56c1.87,0.19,3.74,0.18,5.59-0.21c0.54-0.11,1.07-0.26,1.56-0.53c0.26-0.14,0.27-0.19,0.19-0.45
				c-0.04-0.13-0.09-0.25-0.13-0.38c-1.62,0.75-3.33,0.85-5.05,0.85C9.21,4.08,7.5,3.97,5.88,3.22z M15.79,20.27
				c-3.25,0.93-6.48,0.93-9.72,0c0.02,0.08,0.05,0.15,0.05,0.23c0.02,0.43,0.28,0.59,0.61,0.71c0.83,0.29,1.69,0.44,2.56,0.51
				c1.09,0.09,2.19,0.09,3.28,0c0.86-0.07,1.7-0.22,2.52-0.49c0.35-0.12,0.63-0.29,0.65-0.74C15.75,20.41,15.77,20.34,15.79,20.27z
				 M6.37,2.05c0.07,0.04,0.13,0.07,0.18,0.1C6.58,2.17,6.62,2.18,6.66,2.2C8,2.71,9.41,2.76,10.81,2.81c0.06,0,0.1-0.01,0.1-0.09
				c0.02-0.54,0.36-0.71,0.77-0.8c0.54-0.12,1.08-0.07,1.61,0.01c0.29,0.05,0.61,0.1,0.82,0.34c0.2,0.23,0.38,0.18,0.59,0.11
				c0.2-0.06,0.39-0.13,0.58-0.21c0.07-0.03,0.14-0.06,0.2-0.13C13.65,1.01,8.04,1.06,6.37,2.05z"/>
		</g>
	</g>
	<rect y="22.2" class="st0" width="21.64" height="10.82"/>
	<rect x="5.93" y="30.96" class="st0" width="9.79" height="71.12"/>
</g>
<g id="ztP138.tif">
	<g>
		<path class="st1" d="M199,73.92c0.92,0.89,1.72,1.85,2.08,3.09c0.36,1.24,0.14,2.38-0.69,3.37c-0.84,1-1.96,1.61-3.17,2.04
			c-2.13,0.76-4.34,1.05-6.58,1.07c-5.66,0.06-11.11-1.01-16.32-3.21c-2.17-0.92-4.23-2.05-5.97-3.67
			c-0.84-0.78-1.55-1.65-1.97-2.75c-0.69-1.82-0.02-3.45,1.39-4.55c1.35-1.04,2.93-1.53,4.57-1.86c2.71-0.55,5.44-0.55,8.17-0.32
			c4.38,0.38,8.61,1.39,12.65,3.14C195.29,71.21,197.29,72.36,199,73.92z M171.9,72.68c1.23,1.12,2.55,1.87,3.95,2.49
			c3.49,1.55,7.15,2.46,10.95,2.86c2.28,0.24,4.56,0.29,6.84-0.1c0.97-0.17,1.92-0.41,2.77-0.94c0.91-0.57,1.1-1.31,0.57-2.23
			c-0.22-0.39-0.53-0.7-0.85-0.99c-1.27-1.15-2.76-1.95-4.32-2.6c-4.03-1.68-8.25-2.56-12.6-2.78c-1.87-0.1-3.74,0-5.57,0.44
			c-0.75,0.18-1.48,0.45-2.1,0.93c-0.69,0.54-0.83,1.2-0.4,1.96C171.34,72.11,171.66,72.44,171.9,72.68z M198.53,75.24
			c0,0.42,0.02,0.77-0.08,1.11c-0.29,0.97-0.99,1.55-1.84,1.97c-1.51,0.76-3.16,0.99-4.82,1.1c-2.23,0.15-4.44,0-6.65-0.33
			c-3.78-0.56-7.44-1.53-10.86-3.27c-1.35-0.69-2.64-1.49-3.65-2.65c-0.53-0.61-0.95-1.27-1.03-2.1c-0.05-0.53,0.08-1.02,0.37-1.55
			c-0.56,0.22-1.02,0.48-1.43,0.81c-0.7,0.55-1.19,1.24-1.16,2.18c0.02,0.68,0.3,1.27,0.68,1.82c0.81,1.19,1.92,2.07,3.1,2.84
			c2.55,1.66,5.35,2.75,8.27,3.56c3.1,0.86,6.26,1.38,9.47,1.48c2.58,0.08,5.14-0.06,7.61-0.88c1.04-0.35,2.02-0.8,2.78-1.63
			c0.46-0.5,0.74-1.07,0.68-1.78C199.87,76.84,199.27,76.05,198.53,75.24z"/>
	</g>
</g>
<path class="st2" d="M147.52,66.26c-12.05-4.87-25.83-9.56-41.23-13.4c-29.54-7.37-56.06-9.37-77.3-9.28"/>
</svg>
